<svg xmlns="http://www.w3.org/2000/svg" viewBox="0 0 24 24" fill="currentColor" class="w-6 h-6">
  <path
    d="M12.0004 2.00043C17.5231 2.00066 22.0004 6.47772 22.0004 12.0004C22.0002 17.5229 17.5229 22.0002 12.0004 22.0004C6.47772 22.0004 2.00066 17.5231 2.00043 12.0004C2.00043 6.47758 6.47758 2.00043 12.0004 2.00043ZM11.1 3.84906C7.29032 4.26498 4.26601 7.29033 3.85004 11.1H7.50043V12.9008H3.85004C4.26636 16.7101 7.29065 19.7339 11.1 20.1498V16.5004H12.9008V20.1489C16.7097 19.7325 19.7335 16.7098 20.1498 12.9008H16.5004V11.1H20.1498C19.7339 7.29065 16.7101 4.26636 12.9008 3.85004V7.50043H11.1V3.84906Z"
  />
</svg>