<svg xmlns="http://www.w3.org/2000/svg" viewBox="0 0 24 24" fill="currentColor">
  <path fill-rule="evenodd" clip-rule="evenodd"
    d="M19.5193 19.3916C18.5033 16.1786 15.7733 14.3376 12.0263 14.3376H11.9993C8.2423 14.3166 5.4983 16.1706 4.4803 19.3916L4.3623 19.7656L4.6963 19.9696C6.6543 21.1636 9.0963 21.7686 11.9523 21.7686C11.9843 21.7686 12.0163 21.7686 12.0473 21.7686C14.9433 21.7686 17.3173 21.1796 19.3033 19.9696L19.6373 19.7656L19.5193 19.3916Z"
  />
  <path fill-rule="evenodd" clip-rule="evenodd"
    d="M11.9998 12.1094C14.7228 12.1094 16.9388 9.89442 16.9388 7.17142C16.9388 4.44742 14.7228 2.23242 11.9998 2.23242C9.27683 2.23242 7.06183 4.44742 7.06183 7.17142C7.06183 9.89442 9.27683 12.1094 11.9998 12.1094Z"
  />
</svg>