<svg xmlns="http://www.w3.org/2000/svg" viewBox="0 0 24 24" fill="currentColor">
  <path fill-rule="evenodd" clip-rule="evenodd"
    d="M11.0565 4C14.9538 4 18.1139 7.09567 18.1141 10.9145C18.1141 12.6347 17.4707 14.2066 16.4097 15.4167L20 18.9248L18.9058 20L15.2792 16.4553C14.1016 17.3184 12.6401 17.8299 11.0565 17.8299C7.15928 17.8297 4 14.7333 4 10.9145C4.00021 7.0958 7.15942 4.00021 11.0565 4ZM11.0565 5.51788C8.01494 5.51809 5.54929 7.9341 5.54907 10.9145C5.54907 13.895 8.01481 16.3118 11.0565 16.312C14.0985 16.312 16.565 13.8951 16.565 10.9145C16.5648 7.93397 14.0983 5.51788 11.0565 5.51788Z"
  />
</svg>