<svg xmlns="http://www.w3.org/2000/svg" viewBox="0 0 24 24" fill="currentColor">
  <path fill-rule="evenodd" clip-rule="evenodd"
    d="M21.7384 16.8201C20.9784 14.4101 18.9384 13.0301 16.1384 13.0301H16.0984C14.8684 13.0301 13.7984 13.3001 12.8984 13.7901C15.1584 14.6101 16.8384 16.3001 17.6184 18.6501C19.1084 18.4901 20.4184 18.0701 21.5184 17.4001L21.8584 17.1901L21.7384 16.8201Z"
  />
  <path fill-rule="evenodd" clip-rule="evenodd"
    d="M13.9584 10.9901C14.5684 11.4201 15.3184 11.6801 16.1184 11.6801C18.1784 11.6801 19.8584 10.0001 19.8584 7.93012C19.8584 5.87012 18.1784 4.19012 16.1184 4.19012C15.5384 4.19012 14.9984 4.32012 14.5084 4.56012C14.9784 5.39012 15.2484 6.35013 15.2484 7.37013C15.2484 8.74013 14.7684 10.0001 13.9584 10.9901Z"
  />
  <path fill-rule="evenodd" clip-rule="evenodd"
    d="M16.5884 18.7201C15.7984 16.5701 14.1584 15.1101 11.9184 14.5201C11.1884 14.3201 10.3784 14.2201 9.51844 14.2201H9.46844C5.86844 14.2201 3.24844 15.9901 2.26844 19.0801L2.14844 19.4501L2.48844 19.6501C4.38844 20.8201 6.66844 21.3801 9.43844 21.3801H9.48844C12.3284 21.3901 14.5884 20.8201 16.4984 19.6501L16.8384 19.4501L16.7184 19.0801C16.6784 18.9601 16.6384 18.8401 16.5884 18.7201Z"
  />
  <path fill-rule="evenodd" clip-rule="evenodd"
    d="M9.4884 12.1301C11.0084 12.1301 12.3584 11.4101 13.2284 10.3001C13.8684 9.50012 14.2484 8.48012 14.2484 7.37012C14.2484 6.55012 14.0384 5.78012 13.6784 5.11012C12.8684 3.63012 11.2984 2.62012 9.4884 2.62012C6.8684 2.62012 4.7384 4.75012 4.7384 7.37012C4.7384 9.99012 6.8684 12.1301 9.4884 12.1301Z"
  />
</svg>