<svg width="1080" height="1080" viewBox="0 0 1080 1080" fill="none" xmlns="http://www.w3.org/2000/svg">
<path d="M453.074 140L555.651 212.905L664.72 150.127L717.101 264.553L842.947 264.72L831.098 390.007L940 453.074L867.095 555.651L929.873 664.72L815.447 717.101L815.28 842.947L689.993 831.098L626.926 940L524.349 867.095L415.28 929.873L362.899 815.447L237.053 815.28L248.902 689.993L140 626.926L212.905 524.349L150.127 415.28L264.553 362.899L264.72 237.053L390.007 248.902L453.074 140Z" fill="#F6FF80"/>
<path d="M602.221 368.156L563.764 511.668L692.437 437.38L706.045 460.947L577.405 535.214L720.917 573.668L713.873 599.952L570.312 561.486L644.604 690.163L621.04 703.767L546.764 575.115L508.316 718.615L482.032 711.571L520.476 568.081L391.83 642.357L378.226 618.79L506.902 544.495L363.415 506.047L370.458 479.763L513.903 518.199L439.63 389.556L463.194 375.951L537.479 504.622L575.936 361.113L602.221 368.156Z" fill="#333333"/>
</svg>
